<svg width="135" height="31" viewBox="0 0 135 31" fill="none" xmlns="http://www.w3.org/2000/svg">
<path d="M8.00146 7.49394H11.0969V11.3025H8.00146C7.06811 11.3025 6.26935 11.6293 5.60517 12.2848C4.94098 12.9402 4.60889 13.7338 4.60889 14.6654V21.8979H0.830048V14.6654C0.830048 12.7008 1.52919 11.0158 2.92746 9.60534C4.32574 8.19657 6.01766 7.49219 8.00146 7.49219V7.49394Z" fill="#690FFF"/>
<path d="M14.2883 5.13614C13.8915 5.13614 13.5297 5.04176 13.2029 4.85299C12.876 4.66422 12.6173 4.40729 12.4286 4.0787C12.2398 3.75185 12.1454 3.39004 12.1454 2.99328C12.1454 2.39727 12.3534 1.89214 12.7711 1.47615C13.1871 1.06016 13.694 0.850422 14.2883 0.850422C14.8825 0.850422 15.3894 1.05842 15.8054 1.47615C16.2214 1.89389 16.4311 2.39901 16.4311 2.99328C16.4311 3.58755 16.2231 4.09443 15.8054 4.51041C15.3877 4.9264 14.8825 5.13614 14.2883 5.13614ZM16.1934 21.9207H12.3849V7.51671H16.1934V21.9207Z" fill="#690FFF"/>
<path d="M19.5753 9.2558C20.9736 7.84704 22.6603 7.14265 24.6354 7.14265C26.6104 7.14265 28.2954 7.84704 29.6954 9.2558C31.0937 10.6646 31.7928 12.3512 31.7928 14.3158V23.0358C31.7736 25.0004 31.0639 26.6766 29.6657 28.0661C28.2674 29.4539 26.5947 30.1496 24.6511 30.1496C22.9644 30.1496 21.4718 29.6235 20.1731 28.573C18.8727 27.5208 18.0355 26.1924 17.658 24.5844L21.3774 23.7804C21.5557 24.5145 21.9472 25.1245 22.5537 25.6104C23.1584 26.0963 23.8576 26.3393 24.6511 26.3393C25.5635 26.3393 26.3517 26.0124 27.0177 25.357C27.6819 24.7033 28.014 23.908 28.014 22.9764V21.3998C26.9617 21.9749 25.8414 22.2633 24.6511 22.2633C22.6673 22.2633 20.9754 21.5589 19.5771 20.1501C18.1788 18.7414 17.4797 17.0547 17.4797 15.0901V14.3158C17.4797 12.3512 18.1788 10.6663 19.5771 9.2558H19.5753ZM28.0122 15.0884V14.3141C28.0122 13.3825 27.6801 12.5837 27.0159 11.9178C26.3517 11.2536 25.5582 10.9215 24.6354 10.9215C23.7125 10.9215 22.919 11.2536 22.2548 11.9178C21.5906 12.582 21.2585 13.3807 21.2585 14.3141V15.0884C21.2585 16.0217 21.5906 16.8152 22.2548 17.4689C22.919 18.1244 23.7125 18.4512 24.6354 18.4512C25.5582 18.4512 26.3517 18.1244 27.0159 17.4689C27.6801 16.8135 28.0122 16.0217 28.0122 15.0884Z" fill="#690FFF"/>
<path d="M40.0112 7.15138C41.9758 7.15138 43.6573 7.85576 45.0555 9.26453C46.4538 10.6733 47.1529 12.36 47.1529 14.3245V21.9137H43.3741V14.3245C43.3741 13.3929 43.042 12.5942 42.3778 11.9282C41.7137 11.2641 40.9201 10.932 39.9973 10.932C39.0744 10.932 38.2809 11.2641 37.6167 11.9282C36.9525 12.5924 36.6204 13.3912 36.6204 14.3245V21.9137H32.8416V1.19996H36.6204V8.01482C37.6709 7.43977 38.8035 7.15138 40.013 7.15138H40.0112Z" fill="#690FFF"/>
<path d="M66.3779 7.15138C68.3424 7.15138 70.0239 7.85576 71.4222 9.26453C72.8204 10.6733 73.5196 12.36 73.5196 14.3245V21.9137H69.7407V14.3245C69.7407 13.3929 69.4086 12.5942 68.7444 11.9282C68.0803 11.2641 67.2867 10.932 66.3639 10.932C65.441 10.932 64.6475 11.2641 63.9833 11.9282C63.3191 12.5924 62.987 13.3912 62.987 14.3245V21.9137H59.2082V1.19996H62.987V8.01482C64.0375 7.43977 65.1701 7.15138 66.3796 7.15138H66.3779Z" fill="#98A2B3"/>
<path d="M81.9125 7.1444C83.2024 7.1444 84.3979 7.46776 85.499 8.11096C86.6002 8.75592 87.4689 9.62809 88.1033 10.7292C88.7378 11.8304 89.0559 13.0259 89.0559 14.3158V21.905H85.2771V14.3158C85.2771 13.3842 84.945 12.5855 84.2791 11.9195C83.6149 11.2553 82.8213 10.9232 81.8985 10.9232C80.9756 10.9232 80.1821 11.2553 79.5179 11.9195C78.8537 12.5837 78.5216 13.3825 78.5216 14.3158V15.0901C78.5216 16.0235 78.8537 16.817 79.5179 17.4707C80.1821 18.1261 80.9809 18.453 81.9142 18.453C82.4106 18.453 82.8965 18.3341 83.3719 18.0964V22.085C82.8965 22.2039 82.4089 22.2633 81.9142 22.2633C79.9304 22.2633 78.2385 21.5589 76.8402 20.1501C75.4419 18.7414 74.7428 17.0547 74.7428 15.0901V14.3158C74.7428 12.3512 75.4419 10.6663 76.8402 9.2558C78.2385 7.84704 79.9304 7.14265 81.9142 7.14265H81.9125V7.1444Z" fill="#98A2B3"/>
<path d="M92.377 9.2558C93.7752 7.84704 95.4619 7.14265 97.437 7.14265C99.412 7.14265 101.097 7.84704 102.497 9.2558C103.895 10.6646 104.594 12.3512 104.594 14.3158V21.905H100.816V14.3158C100.816 13.3842 100.483 12.5854 99.8175 11.9195C99.1534 11.2553 98.3633 10.9232 97.451 10.9232C96.9755 10.9232 96.5281 11.0124 96.1121 11.1907C95.6961 11.3689 95.3378 11.6119 95.0407 11.9195C94.7435 12.2271 94.5058 12.5889 94.3258 13.0049C94.1475 13.4209 94.0584 13.8579 94.0584 14.3141V21.9032H90.2795V14.3141C90.2795 12.3495 90.9787 10.6646 92.377 9.25405V9.2558Z" fill="#98A2B3"/>
<path d="M116.354 1.19996H120.133V15.0988C120.133 17.0634 119.433 18.7501 118.035 20.1589C116.637 21.5676 114.95 22.272 112.975 22.272C111 22.272 109.315 21.5676 107.915 20.1589C106.517 18.7501 105.818 17.0634 105.818 15.0988V14.3245C105.818 12.36 106.517 10.675 107.915 9.26453C109.313 7.85577 111.005 7.15138 112.989 7.15138C114.179 7.15138 115.3 7.43978 116.352 8.01482V1.19996H116.354ZM116.354 15.0988V14.3245C116.354 13.3929 116.022 12.5942 115.356 11.9282C114.692 11.2641 113.898 10.932 112.975 10.932C112.052 10.932 111.259 11.2641 110.595 11.9282C109.93 12.5924 109.598 13.3912 109.598 14.3245V15.0988C109.598 16.0322 109.93 16.8257 110.595 17.4794C111.259 18.1349 112.052 18.4617 112.975 18.4617C113.898 18.4617 114.692 18.1349 115.356 17.4794C116.02 16.824 116.354 16.0322 116.354 15.0988Z" fill="#98A2B3"/>
<path d="M130.224 12.8161C131.474 12.8161 132.545 13.2583 133.439 14.141C134.332 15.0237 134.777 16.0951 134.777 17.3553C134.777 18.6155 134.332 19.6869 133.439 20.5696C132.545 21.4522 131.474 21.8945 130.224 21.8945H121.356V18.1156H130.224C130.443 18.1156 130.626 18.0404 130.775 17.8919C130.923 17.7433 130.999 17.565 130.999 17.357C130.999 17.149 130.923 16.9708 130.775 16.8222C130.626 16.6736 130.443 16.5985 130.224 16.5985H125.909C124.659 16.5985 123.588 16.1528 122.695 15.2596C121.801 14.3665 121.356 13.295 121.356 12.0453C121.356 10.7956 121.801 9.72419 122.695 8.83104C123.588 7.93789 124.659 7.49219 125.909 7.49219H132.993V11.3007H125.909C125.69 11.3007 125.507 11.3759 125.358 11.5245C125.21 11.673 125.135 11.8513 125.135 12.0593C125.135 12.2673 125.21 12.4456 125.358 12.5942C125.507 12.7427 125.69 12.8179 125.909 12.8179H130.224V12.8161Z" fill="#98A2B3"/>
<path d="M55.373 18.1156H59.2082L63.0535 21.8945H55.373C53.3891 21.8945 51.6972 21.1953 50.299 19.7971C48.9007 18.3988 48.2015 16.7069 48.2015 14.7231V1.19996H51.9804V7.49046H56.2958V11.299H51.9804V14.7213C51.9804 15.6547 52.3125 16.4517 52.9784 17.1176C53.6443 17.7835 54.4413 18.1139 55.3747 18.1139H55.373V18.1156Z" fill="#690FFF"/>
</svg>
