<svg width="132" height="45" viewBox="0 0 132 45" fill="none" xmlns="http://www.w3.org/2000/svg">
<rect x="0.5" y="0.652344" width="131" height="43" rx="7.5" stroke="white"/>
<path d="M89.6784 21.2737V23.7938H88.0988V25.4465H89.6784V31.062C89.6784 32.9795 90.5459 33.7465 92.7281 33.7465C93.1116 33.7465 93.4769 33.7008 93.7965 33.646V32.0116C93.5225 32.039 93.349 32.0573 93.0477 32.0573C92.0707 32.0573 91.6416 31.6007 91.6416 30.5598V25.4465H93.7965V23.7938H91.6416V21.2737H89.6784Z" fill="white"/>
<path d="M99.3557 33.8834C102.259 33.8834 104.04 31.9386 104.04 28.7154C104.04 25.5104 102.25 23.5564 99.3557 23.5564C96.4521 23.5564 94.6624 25.5104 94.6624 28.7154C94.6624 31.9386 96.443 33.8834 99.3557 33.8834ZM99.3557 32.1395C97.6482 32.1395 96.6895 30.8885 96.6895 28.7154C96.6895 26.5605 97.6482 25.3004 99.3557 25.3004C101.054 25.3004 102.022 26.5605 102.022 28.7154C102.022 30.8794 101.054 32.1395 99.3557 32.1395Z" fill="white"/>
<path d="M105.563 33.6917H107.526V27.8206C107.526 26.4235 108.576 25.4831 110.065 25.4831C110.412 25.4831 110.996 25.547 111.16 25.6018V23.666C110.95 23.6112 110.576 23.5838 110.284 23.5838C108.987 23.5838 107.882 24.296 107.599 25.273H107.453V23.7482H105.563V33.6917Z" fill="white"/>
<path d="M116.035 25.2274C117.487 25.2274 118.436 26.2409 118.482 27.8023H113.46C113.57 26.25 114.583 25.2274 116.035 25.2274ZM118.473 31.0072C118.108 31.7833 117.295 32.2125 116.108 32.2125C114.537 32.2125 113.524 31.1077 113.46 29.3637V29.2541H120.482V28.5693C120.482 25.4465 118.811 23.5564 116.044 23.5564C113.241 23.5564 111.46 25.5744 111.46 28.7519C111.46 31.9294 113.204 33.8834 116.053 33.8834C118.327 33.8834 119.915 32.7877 120.363 31.0072H118.473Z" fill="white"/>
<path d="M76.8045 30.0197C76.9559 32.4614 78.9907 34.0229 82.0191 34.0229C85.2557 34.0229 87.281 32.3857 87.281 29.7737C87.281 27.72 86.1264 26.5843 83.3251 25.9313L81.8203 25.5622C80.0411 25.1458 79.3219 24.5875 79.3219 23.6127C79.3219 22.3824 80.4386 21.5779 82.1137 21.5779C83.7037 21.5779 84.8015 22.3634 85.0002 23.6221H87.0633C86.9403 21.3224 84.915 19.7041 82.1421 19.7041C79.161 19.7041 77.1736 21.3224 77.1736 23.7546C77.1736 25.761 78.2998 26.9534 80.7699 27.5307L82.5301 27.9566C84.3377 28.3825 85.1327 29.0071 85.1327 30.0481C85.1327 31.2595 83.8835 32.1396 82.18 32.1396C80.3535 32.1396 79.0853 31.3163 78.9055 30.0197H76.8045Z" fill="white"/>
<path d="M56.4684 23.5838C55.1171 23.5838 53.9483 24.2595 53.3457 25.3917H53.1996V23.7482H51.3095V36.9971H53.2726V32.1851H53.4279C53.9483 33.2352 55.0714 33.8561 56.4867 33.8561C58.9977 33.8561 60.5956 31.8747 60.5956 28.7154C60.5956 25.5561 58.9977 23.5838 56.4684 23.5838ZM55.9114 32.0938C54.2679 32.0938 53.2361 30.7972 53.2361 28.7245C53.2361 26.6427 54.2679 25.3461 55.9206 25.3461C57.5824 25.3461 58.5777 26.6153 58.5777 28.7154C58.5777 30.8246 57.5824 32.0938 55.9114 32.0938Z" fill="white"/>
<path d="M67.4649 23.5838C66.1135 23.5838 64.9448 24.2595 64.3422 25.3917H64.1961V23.7482H62.306V36.9971H64.2691V32.1851H64.4243C64.9448 33.2352 66.0679 33.8561 67.4832 33.8561C69.9942 33.8561 71.5921 31.8747 71.5921 28.7154C71.5921 25.5561 69.9942 23.5838 67.4649 23.5838ZM66.9079 32.0938C65.2644 32.0938 64.2326 30.7972 64.2326 28.7245C64.2326 26.6427 65.2644 25.3461 66.9171 25.3461C68.5789 25.3461 69.5741 26.6153 69.5741 28.7154C69.5741 30.8246 68.5789 32.0938 66.9079 32.0938Z" fill="white"/>
<path d="M47.7873 33.6917H50.0397L45.109 20.0353H42.8282L37.8976 33.6917H40.0742L41.3329 30.067H46.5381L47.7873 33.6917ZM43.8598 22.5149H44.0207L45.9986 28.2878H41.8724L43.8598 22.5149Z" fill="white"/>
<path d="M39.2162 9.7343V16.3222H41.5948C43.558 16.3222 44.6948 15.1124 44.6948 13.0077C44.6948 10.935 43.5488 9.7343 41.5948 9.7343H39.2162ZM40.2389 10.6656H41.4807C42.8458 10.6656 43.6538 11.5331 43.6538 13.0214C43.6538 14.5326 42.8595 15.3909 41.4807 15.3909H40.2389V10.6656Z" fill="white"/>
<path d="M48.1764 16.4181C49.6282 16.4181 50.5184 15.4457 50.5184 13.8341C50.5184 12.2316 49.6236 11.2546 48.1764 11.2546C46.7246 11.2546 45.8297 12.2316 45.8297 13.8341C45.8297 15.4457 46.72 16.4181 48.1764 16.4181ZM48.1764 15.5461C47.3226 15.5461 46.8433 14.9206 46.8433 13.8341C46.8433 12.7566 47.3226 12.1266 48.1764 12.1266C49.0255 12.1266 49.5095 12.7566 49.5095 13.8341C49.5095 14.9161 49.0255 15.5461 48.1764 15.5461Z" fill="white"/>
<path d="M58.0998 11.3505H57.1182L56.2325 15.1443H56.1549L55.1322 11.3505H54.1918L53.1691 15.1443H53.0961L52.2058 11.3505H51.2105L52.5802 16.3222H53.5891L54.6118 12.6607H54.6894L55.7166 16.3222H56.7347L58.0998 11.3505Z" fill="white"/>
<path d="M59.2302 16.3222H60.2117V13.414C60.2117 12.6379 60.6729 12.154 61.3988 12.154C62.1247 12.154 62.4716 12.5512 62.4716 13.3501V16.3222H63.4532V13.1036C63.4532 11.9211 62.8414 11.2546 61.732 11.2546C60.9833 11.2546 60.4902 11.5879 60.2483 12.1403H60.1752V11.3505H59.2302V16.3222Z" fill="white"/>
<path d="M64.9991 16.3222H65.9806V9.41016H64.9991V16.3222Z" fill="white"/>
<path d="M69.6722 16.4181C71.124 16.4181 72.0143 15.4457 72.0143 13.8341C72.0143 12.2316 71.1195 11.2546 69.6722 11.2546C68.2204 11.2546 67.3256 12.2316 67.3256 13.8341C67.3256 15.4457 68.2159 16.4181 69.6722 16.4181ZM69.6722 15.5461C68.8185 15.5461 68.3391 14.9206 68.3391 13.8341C68.3391 12.7566 68.8185 12.1266 69.6722 12.1266C70.5214 12.1266 71.0053 12.7566 71.0053 13.8341C71.0053 14.9161 70.5214 15.5461 69.6722 15.5461Z" fill="white"/>
<path d="M74.9389 15.5781C74.4048 15.5781 74.0167 15.3178 74.0167 14.8704C74.0167 14.4321 74.3271 14.1993 75.012 14.1536L76.2264 14.076V14.4915C76.2264 15.1078 75.6785 15.5781 74.9389 15.5781ZM74.6878 16.4044C75.3407 16.4044 75.884 16.1213 76.1807 15.6237H76.2583V16.3222H77.2034V12.9255C77.2034 11.8755 76.5003 11.2546 75.2539 11.2546C74.1263 11.2546 73.3228 11.8024 73.2223 12.6562H74.1719C74.2815 12.3046 74.6604 12.1038 75.2083 12.1038C75.8794 12.1038 76.2264 12.4005 76.2264 12.9255V13.3547L74.8796 13.4323C73.6971 13.5053 73.0306 14.0212 73.0306 14.9161C73.0306 15.8246 73.7291 16.4044 74.6878 16.4044Z" fill="white"/>
<path d="M80.5343 16.4044C81.2191 16.4044 81.7989 16.0802 82.0957 15.537H82.1733V16.3222H83.1138V9.41016H82.1322V12.1403H82.0592C81.7898 11.5924 81.2146 11.2683 80.5343 11.2683C79.2788 11.2683 78.4707 12.2635 78.4707 13.8341C78.4707 15.4091 79.2697 16.4044 80.5343 16.4044ZM80.8128 12.1494C81.6346 12.1494 82.1505 12.8023 82.1505 13.8386C82.1505 14.8795 81.6391 15.5233 80.8128 15.5233C79.9819 15.5233 79.4843 14.8887 79.4843 13.8341C79.4843 12.7886 79.9865 12.1494 80.8128 12.1494Z" fill="white"/>
<path d="M89.4789 16.4181C90.9307 16.4181 91.821 15.4457 91.821 13.8341C91.821 12.2316 90.9261 11.2546 89.4789 11.2546C88.0271 11.2546 87.1323 12.2316 87.1323 13.8341C87.1323 15.4457 88.0225 16.4181 89.4789 16.4181ZM89.4789 15.5461C88.6252 15.5461 88.1458 14.9206 88.1458 13.8341C88.1458 12.7566 88.6252 12.1266 89.4789 12.1266C90.3281 12.1266 90.812 12.7566 90.812 13.8341C90.812 14.9161 90.3281 15.5461 89.4789 15.5461Z" fill="white"/>
<path d="M93.1203 16.3222H94.1018V13.414C94.1018 12.6379 94.563 12.154 95.2889 12.154C96.0148 12.154 96.3617 12.5512 96.3617 13.3501V16.3222H97.3433V13.1036C97.3433 11.9211 96.7315 11.2546 95.6221 11.2546C94.8734 11.2546 94.3803 11.5879 94.1384 12.1403H94.0653V11.3505H93.1203V16.3222Z" fill="white"/>
<path d="M101.864 10.1132V11.3733H101.074V12.1996H101.864V15.0074C101.864 15.9661 102.298 16.3496 103.389 16.3496C103.581 16.3496 103.763 16.3268 103.923 16.2994V15.4822C103.786 15.4959 103.699 15.505 103.549 15.505C103.06 15.505 102.846 15.2767 102.846 14.7563V12.1996H103.923V11.3733H102.846V10.1132H101.864Z" fill="white"/>
<path d="M105.241 16.3222H106.222V13.4186C106.222 12.6653 106.67 12.1585 107.473 12.1585C108.167 12.1585 108.537 12.5603 108.537 13.3547V16.3222H109.518V13.1127C109.518 11.9303 108.866 11.2592 107.806 11.2592C107.058 11.2592 106.533 11.5924 106.291 12.1494H106.213V9.41016H105.241V16.3222Z" fill="white"/>
<path d="M113.059 12.0901C113.785 12.0901 114.26 12.5968 114.283 13.3775H111.772C111.827 12.6014 112.333 12.0901 113.059 12.0901ZM114.278 14.98C114.096 15.368 113.689 15.5826 113.096 15.5826C112.311 15.5826 111.804 15.0302 111.772 14.1582V14.1034H115.283V13.761C115.283 12.1996 114.447 11.2546 113.064 11.2546C111.662 11.2546 110.772 12.2635 110.772 13.8523C110.772 15.4411 111.644 16.4181 113.068 16.4181C114.205 16.4181 115 15.8702 115.223 14.98H114.278Z" fill="white"/>
<path d="M27.2459 22.4835C27.2697 20.6344 28.2628 18.8848 29.8381 17.9162C28.8443 16.4969 27.1797 15.597 25.4478 15.5428C23.6007 15.3489 21.8099 16.6481 20.8686 16.6481C19.9091 16.6481 18.4599 15.562 16.8993 15.5942C14.8651 15.6599 12.9687 16.8164 11.9791 18.5948C9.85167 22.2781 11.4385 27.6912 13.4764 30.6685C14.496 32.1264 15.6876 33.7549 17.2468 33.6971C18.7726 33.6339 19.3424 32.7242 21.1841 32.7242C23.0088 32.7242 23.5434 33.6971 25.1342 33.6604C26.7714 33.6338 27.803 32.1961 28.7868 30.7244C29.5194 29.6856 30.0831 28.5375 30.4571 27.3226C28.533 26.5088 27.2481 24.5726 27.2459 22.4835Z" fill="white"/>
<path d="M24.2411 13.5848C25.1337 12.5132 25.5735 11.1358 25.467 9.74512C24.1032 9.88836 22.8434 10.5402 21.9387 11.5707C21.054 12.5776 20.5936 13.9307 20.6806 15.2682C22.0449 15.2823 23.3861 14.6481 24.2411 13.5848Z" fill="white"/>
</svg>
