<svg width="149" height="45" viewBox="0 0 149 45" fill="none" xmlns="http://www.w3.org/2000/svg">
<rect x="0.5" y="0.652344" width="147.5" height="43" rx="6.5" stroke="white"/>
<path d="M74.9496 24.0787C72.3624 24.0787 70.2537 26.0466 70.2537 28.757C70.2537 31.4509 72.3624 33.4353 74.9496 33.4353C77.5379 33.4353 79.6466 31.4509 79.6466 28.757C79.6455 26.0466 77.5368 24.0787 74.9496 24.0787ZM74.9496 31.5939C73.5317 31.5939 72.3096 30.4246 72.3096 28.7581C72.3096 27.074 73.5328 25.9223 74.9496 25.9223C76.3675 25.9223 77.5896 27.074 77.5896 28.7581C77.5896 30.4235 76.3675 31.5939 74.9496 31.5939ZM64.7042 24.0787C62.117 24.0787 60.0083 26.0466 60.0083 28.757C60.0083 31.4509 62.117 33.4353 64.7042 33.4353C67.2925 33.4353 69.4012 31.4509 69.4012 28.757C69.4012 26.0466 67.2925 24.0787 64.7042 24.0787ZM64.7042 31.5939C63.2863 31.5939 62.0642 30.4246 62.0642 28.7581C62.0642 27.074 63.2874 25.9223 64.7042 25.9223C66.1221 25.9223 67.3442 27.074 67.3442 28.7581C67.3453 30.4235 66.1221 31.5939 64.7042 31.5939ZM52.5184 25.5153V27.4997H57.2682C57.1263 28.6162 56.7545 29.4313 56.1869 29.9978C55.4961 30.6886 54.4148 31.4509 52.5184 31.4509C49.5946 31.4509 47.3088 29.0936 47.3088 26.1698C47.3088 23.246 49.5946 20.8887 52.5184 20.8887C54.0958 20.8887 55.2475 21.5091 56.0978 22.3066L57.4981 20.9063C56.3101 19.7722 54.7338 18.9043 52.5184 18.9043C48.5133 18.9043 45.1462 22.1647 45.1462 26.1698C45.1462 30.1749 48.5133 33.4353 52.5184 33.4353C54.6799 33.4353 56.3112 32.7258 57.5861 31.397C58.8973 30.0858 59.3054 28.2422 59.3054 26.7539C59.3054 26.2941 59.2702 25.8684 59.1987 25.5142H52.5184V25.5153ZM102.357 27.0564C101.968 26.0114 100.78 24.0787 98.3521 24.0787C95.942 24.0787 93.9389 25.9751 93.9389 28.757C93.9389 31.3794 95.9244 33.4353 98.582 33.4353C100.726 33.4353 101.967 32.1241 102.481 31.3618L100.886 30.2981C100.355 31.078 99.6281 31.5917 98.582 31.5917C97.537 31.5917 96.7923 31.1132 96.3138 30.1738L102.569 27.5866L102.357 27.0564ZM95.9772 28.6162C95.9244 26.8078 97.3775 25.8871 98.4236 25.8871C99.2387 25.8871 99.9295 26.2952 100.16 26.8793L95.9772 28.6162ZM90.8919 33.1526H92.9467V19.4015H90.8919V33.1526ZM87.5237 25.1248H87.4533C86.9924 24.5748 86.1058 24.0787 84.9904 24.0787C82.6507 24.0787 80.5068 26.1346 80.5068 28.7757C80.5068 31.3981 82.6507 33.4364 84.9904 33.4364C86.1069 33.4364 86.9924 32.9403 87.4533 32.3738H87.5237V33.047C87.5237 34.8367 86.5667 35.7937 85.0256 35.7937C83.7672 35.7937 82.9873 34.8906 82.6683 34.1283L80.8786 34.873C81.3923 36.1127 82.7563 37.6373 85.0256 37.6373C87.4357 37.6373 89.474 36.2194 89.474 32.7632V24.3636H87.5248V25.1248H87.5237ZM85.1675 31.5939C83.7496 31.5939 82.5627 30.4059 82.5627 28.7757C82.5627 27.1268 83.7496 25.9223 85.1675 25.9223C86.5667 25.9223 87.6656 27.1268 87.6656 28.7757C87.6656 30.4059 86.5667 31.5939 85.1675 31.5939ZM111.987 19.4015H107.068V33.1526H109.12V27.943H111.985C114.26 27.943 116.498 26.2963 116.498 23.6728C116.498 21.0493 114.261 19.4015 111.987 19.4015ZM112.039 26.029H109.12V21.3155H112.039C113.574 21.3155 114.445 22.586 114.445 23.6728C114.445 24.7376 113.574 26.029 112.039 26.029ZM124.725 24.0545C123.238 24.0545 121.7 24.709 121.063 26.1599L122.884 26.92C123.274 26.1599 124 25.9113 124.76 25.9113C125.821 25.9113 126.9 26.5482 126.918 27.6801V27.822C126.546 27.6097 125.75 27.2918 124.777 27.2918C122.814 27.2918 120.814 28.3709 120.814 30.3872C120.814 32.2275 122.424 33.4122 124.228 33.4122C125.608 33.4122 126.369 32.7929 126.846 32.0669H126.917V33.1284H128.899V27.8561C128.9 25.4163 127.076 24.0545 124.725 24.0545ZM124.476 31.5906C123.805 31.5906 122.867 31.254 122.867 30.4224C122.867 29.3609 124.035 28.9539 125.044 28.9539C125.944 28.9539 126.37 29.1486 126.918 29.4137C126.758 30.6886 125.662 31.5906 124.476 31.5906ZM136.117 24.3548L133.764 30.3168H133.694L131.252 24.3548H129.041L132.703 32.6873L130.615 37.3227H132.756L138.4 24.3548H136.117ZM117.631 33.1526H119.682V19.4015H117.631V33.1526Z" fill="white"/>
<path d="M52.1598 11.4198C52.1598 12.3417 51.887 13.0753 51.3403 13.6231C50.7199 14.2743 49.9103 14.6 48.9159 14.6C47.9633 14.6 47.1526 14.2699 46.4871 13.6099C45.8205 12.9488 45.4872 12.1304 45.4872 11.1536C45.4872 10.1757 45.8205 9.35735 46.4871 8.69735C47.1526 8.03625 47.9633 7.70625 48.9159 7.70625C49.3889 7.70625 49.841 7.79865 50.27 7.98235C50.7001 8.16715 51.0444 8.41245 51.3018 8.71935L50.7221 9.30015C50.2854 8.77765 49.6837 8.51695 48.9148 8.51695C48.2196 8.51695 47.619 8.76115 47.1119 9.24955C46.6048 9.73795 46.3518 10.3726 46.3518 11.1525C46.3518 11.9324 46.6048 12.5671 47.1119 13.0555C47.619 13.5439 48.2196 13.7881 48.9148 13.7881C49.6518 13.7881 50.2667 13.5428 50.7584 13.0511C51.0774 12.731 51.2622 12.2855 51.3117 11.7146H48.9148V10.9216H52.1125C52.1455 11.0943 52.1598 11.2603 52.1598 11.4198Z" fill="white"/>
<path d="M57.2309 8.66331H54.2257V10.7555H56.9361V11.5486H54.2257V13.6408H57.2309V14.4526H53.3776V7.85261H57.2309V8.66331Z" fill="white"/>
<path d="M60.8069 14.4526H59.9588V8.66331H58.1152V7.85261H62.6505V8.66331H60.8069V14.4526Z" fill="white"/>
<path d="M65.9318 14.4526V7.85261H66.7799V14.4526H65.9318Z" fill="white"/>
<path d="M70.541 14.4526H69.6929V8.66331H67.8493V7.85261H72.3846V8.66331H70.541V14.4526Z" fill="white"/>
<path d="M80.9698 13.6001C80.3208 14.2667 79.5145 14.6 78.5498 14.6C77.5851 14.6 76.7788 14.2667 76.1309 13.6001C75.4819 12.9335 75.1585 12.1173 75.1585 11.1526C75.1585 10.1879 75.4819 9.3717 76.1309 8.7051C76.7788 8.0385 77.5851 7.7041 78.5498 7.7041C79.509 7.7041 80.3142 8.0396 80.9654 8.7095C81.6166 9.3794 81.9422 10.1934 81.9422 11.1526C81.9422 12.1173 81.6177 12.9335 80.9698 13.6001ZM76.7568 13.0468C77.2452 13.5418 77.8425 13.7882 78.5498 13.7882C79.2571 13.7882 79.8555 13.5407 80.3428 13.0468C80.8312 12.5518 81.0765 11.9204 81.0765 11.1526C81.0765 10.3848 80.8312 9.7534 80.3428 9.2584C79.8555 8.7634 79.2571 8.517 78.5498 8.517C77.8425 8.517 77.2452 8.7645 76.7568 9.2584C76.2695 9.7534 76.0242 10.3848 76.0242 11.1526C76.0242 11.9204 76.2695 12.5518 76.7568 13.0468Z" fill="white"/>
<path d="M83.1324 14.4526V7.85261H84.1642L87.3718 12.9863H87.4081L87.3718 11.7147V7.85261H88.2199V14.4526H87.3344L83.9783 9.06921H83.942L83.9783 10.3408V14.4526H83.1324Z" fill="white"/>
<path d="M52.1598 11.4198C52.1598 12.3417 51.887 13.0753 51.3403 13.6231C50.7199 14.2743 49.9103 14.6 48.9159 14.6C47.9633 14.6 47.1526 14.2699 46.4871 13.6099C45.8205 12.9488 45.4872 12.1304 45.4872 11.1536C45.4872 10.1757 45.8205 9.35735 46.4871 8.69735C47.1526 8.03625 47.9633 7.70625 48.9159 7.70625C49.3889 7.70625 49.841 7.79865 50.27 7.98235C50.7001 8.16715 51.0444 8.41245 51.3018 8.71935L50.7221 9.30015C50.2854 8.77765 49.6837 8.51695 48.9148 8.51695C48.2196 8.51695 47.619 8.76115 47.1119 9.24955C46.6048 9.73795 46.3518 10.3726 46.3518 11.1525C46.3518 11.9324 46.6048 12.5671 47.1119 13.0555C47.619 13.5439 48.2196 13.7881 48.9148 13.7881C49.6518 13.7881 50.2667 13.5428 50.7584 13.0511C51.0774 12.731 51.2622 12.2855 51.3117 11.7146H48.9148V10.9216H52.1125C52.1455 11.0943 52.1598 11.2603 52.1598 11.4198Z" stroke="white" stroke-width="0.2" stroke-miterlimit="10"/>
<path d="M57.2309 8.66331H54.2257V10.7555H56.9361V11.5486H54.2257V13.6408H57.2309V14.4526H53.3776V7.85261H57.2309V8.66331Z" stroke="white" stroke-width="0.2" stroke-miterlimit="10"/>
<path d="M60.8069 14.4526H59.9588V8.66331H58.1152V7.85261H62.6505V8.66331H60.8069V14.4526Z" stroke="white" stroke-width="0.2" stroke-miterlimit="10"/>
<path d="M65.9318 14.4526V7.85261H66.7799V14.4526H65.9318Z" stroke="white" stroke-width="0.2" stroke-miterlimit="10"/>
<path d="M70.541 14.4526H69.6929V8.66331H67.8493V7.85261H72.3846V8.66331H70.541V14.4526Z" stroke="white" stroke-width="0.2" stroke-miterlimit="10"/>
<path d="M80.9698 13.6001C80.3208 14.2667 79.5145 14.6 78.5498 14.6C77.5851 14.6 76.7788 14.2667 76.1309 13.6001C75.4819 12.9335 75.1585 12.1173 75.1585 11.1526C75.1585 10.1879 75.4819 9.3717 76.1309 8.7051C76.7788 8.0385 77.5851 7.7041 78.5498 7.7041C79.509 7.7041 80.3142 8.0396 80.9654 8.7095C81.6166 9.3794 81.9422 10.1934 81.9422 11.1526C81.9422 12.1173 81.6177 12.9335 80.9698 13.6001ZM76.7568 13.0468C77.2452 13.5418 77.8425 13.7882 78.5498 13.7882C79.2571 13.7882 79.8555 13.5407 80.3428 13.0468C80.8312 12.5518 81.0765 11.9204 81.0765 11.1526C81.0765 10.3848 80.8312 9.7534 80.3428 9.2584C79.8555 8.7634 79.2571 8.517 78.5498 8.517C77.8425 8.517 77.2452 8.7645 76.7568 9.2584C76.2695 9.7534 76.0242 10.3848 76.0242 11.1526C76.0242 11.9204 76.2695 12.5518 76.7568 13.0468Z" stroke="white" stroke-width="0.2" stroke-miterlimit="10"/>
<path d="M83.1324 14.4526V7.85261H84.1642L87.3718 12.9863H87.4081L87.3718 11.7147V7.85261H88.2199V14.4526H87.3344L83.9783 9.06921H83.942L83.9783 10.3408V14.4526H83.1324Z" stroke="white" stroke-width="0.2" stroke-miterlimit="10"/>
<path d="M29.3824 27.0563L13.7653 35.9313C13.0439 36.3404 12.3849 36.3969 11.8883 36.1608L25.1862 22.86L29.3824 27.0563ZM24.4791 22.153L11.1949 35.4401C11.0511 35.1377 10.9704 34.7613 10.9703 34.3181V9.98993C10.9704 9.54772 11.0513 9.17146 11.1949 8.86884L24.4791 22.153ZM35.2164 20.5661C36.7531 21.4395 36.7531 22.8693 35.2164 23.7438L30.2848 26.5446L25.8932 22.153L30.2828 17.7624L35.2164 20.5661ZM11.8873 8.14716C12.384 7.9105 13.0437 7.96759 13.7653 8.37763L29.3805 17.2507L25.1862 21.446L11.8873 8.14716Z" fill="white"/>
</svg>
