<svg width="22" height="23" viewBox="0 0 22 23" fill="none" xmlns="http://www.w3.org/2000/svg">
<path d="M8 11.8774L10 13.8774L14.5 9.37744M16.9012 4.87595C17.1071 5.37397 17.5024 5.76984 18.0001 5.97651L19.7452 6.69942C20.2433 6.90572 20.639 7.30144 20.8453 7.7995C21.0516 8.29756 21.0516 8.85718 20.8453 9.35525L20.1229 11.0992C19.9165 11.5975 19.9162 12.1577 20.1236 12.6558L20.8447 14.3992C20.9469 14.6459 20.9996 14.9103 20.9996 15.1774C20.9997 15.4444 20.9471 15.7089 20.8449 15.9556C20.7427 16.2023 20.5929 16.4265 20.4041 16.6153C20.2152 16.8041 19.991 16.9538 19.7443 17.0559L18.0004 17.7783C17.5023 17.9842 17.1065 18.3795 16.8998 18.8772L16.1769 20.6225C15.9706 21.1205 15.575 21.5162 15.0769 21.7225C14.5789 21.9288 14.0193 21.9289 13.5212 21.7225L11.7773 21.0002C11.2792 20.7944 10.7198 20.7948 10.2221 21.0013L8.47689 21.7232C7.97912 21.929 7.42001 21.9288 6.92237 21.7227C6.42473 21.5166 6.02925 21.1213 5.82281 20.6238L5.09972 18.878C4.8938 18.38 4.49854 17.9841 4.00085 17.7775L2.25566 17.0546C1.75783 16.8483 1.36226 16.4529 1.15588 15.9551C0.949508 15.4573 0.949228 14.898 1.1551 14.4L1.87746 12.656C2.08325 12.1579 2.08283 11.5985 1.8763 11.1007L1.15497 9.35423C1.0527 9.10754 1.00004 8.84312 1 8.57607C0.999957 8.30903 1.05253 8.04459 1.15472 7.79787C1.25691 7.55116 1.40671 7.32699 1.59557 7.13819C1.78442 6.94939 2.00862 6.79966 2.25537 6.69755L3.9993 5.97516C4.49687 5.76941 4.89248 5.37464 5.0993 4.8775L5.82218 3.13225C6.02848 2.63419 6.42418 2.23848 6.92222 2.03217C7.42027 1.82587 7.97987 1.82587 8.47792 2.03217L10.2218 2.75456C10.7199 2.96035 11.2793 2.95993 11.7771 2.75339L13.523 2.03329C14.021 1.8271 14.5804 1.82714 15.0784 2.03341C15.5763 2.23967 15.972 2.63527 16.1783 3.13321L16.9014 4.87897L16.9012 4.87595Z" stroke="white" stroke-width="2" stroke-linecap="round" stroke-linejoin="round"/>
</svg>
