<svg width="18" height="23" viewBox="0 0 18 23" fill="none" xmlns="http://www.w3.org/2000/svg">
<path d="M6 11.3773L8 13.3773L12.5 8.87731M17 11.8773C17 16.7858 11.646 20.3557 9.69799 21.4922C9.4766 21.6213 9.3659 21.6859 9.20968 21.7194C9.08844 21.7454 8.91156 21.7454 8.79032 21.7194C8.6341 21.6859 8.5234 21.6213 8.30201 21.4922C6.35396 20.3557 1 16.7858 1 11.8773V7.09491C1 6.2954 1 5.89565 1.13076 5.55202C1.24627 5.24845 1.43398 4.97759 1.67766 4.76284C1.9535 4.51975 2.3278 4.37939 3.0764 4.09866L8.4382 2.08799C8.6461 2.01003 8.75005 1.97104 8.85698 1.95559C8.95184 1.94189 9.04816 1.94189 9.14302 1.95559C9.24995 1.97104 9.3539 2.01003 9.5618 2.08799L14.9236 4.09866C15.6722 4.37939 16.0465 4.51975 16.3223 4.76284C16.566 4.97759 16.7537 5.24845 16.8692 5.55202C17 5.89565 17 6.2954 17 7.09491V11.8773Z" stroke="white" stroke-width="2" stroke-linecap="round" stroke-linejoin="round"/>
</svg>
