<svg width="22" height="23" viewBox="0 0 22 23" fill="none" xmlns="http://www.w3.org/2000/svg">
<path d="M3.5 21.8774V16.8774M3.5 6.87744V1.87744M1 4.37744H6M1 19.3774H6M12 2.87744L10.2658 7.3863C9.98381 8.11953 9.84281 8.48615 9.62353 8.79453C9.42919 9.06784 9.1904 9.30663 8.91709 9.50097C8.60871 9.72025 8.24209 9.86125 7.50886 10.1433L3 11.8774L7.50886 13.6116C8.24209 13.8936 8.60871 14.0346 8.91709 14.2539C9.1904 14.4483 9.42919 14.687 9.62353 14.9604C9.84281 15.2687 9.98381 15.6353 10.2658 16.3686L12 20.8774L13.7342 16.3686C14.0162 15.6353 14.1572 15.2687 14.3765 14.9604C14.5708 14.687 14.8096 14.4483 15.0829 14.2539C15.3913 14.0346 15.7579 13.8936 16.4911 13.6116L21 11.8774L16.4911 10.1433C15.7579 9.86125 15.3913 9.72025 15.0829 9.50097C14.8096 9.30663 14.5708 9.06784 14.3765 8.79453C14.1572 8.48615 14.0162 8.11953 13.7342 7.3863L12 2.87744Z" stroke="white" stroke-width="2" stroke-linecap="round" stroke-linejoin="round"/>
</svg>
