<svg width="22" height="19" viewBox="0 0 22 19" fill="none" xmlns="http://www.w3.org/2000/svg">
<path d="M5 8.87744V12.8774M17 6.87744V10.8774M16 1.87744C18.4487 1.87744 19.7731 2.2522 20.4321 2.54288C20.5199 2.5816 20.5638 2.60095 20.6904 2.72181C20.7663 2.79426 20.9049 3.00683 20.9405 3.10553C21 3.27018 21 3.36018 21 3.54018V14.2886C21 15.1974 21 15.6517 20.8637 15.8853C20.7251 16.1229 20.5914 16.2333 20.3319 16.3246C20.0769 16.4144 19.562 16.3155 18.5322 16.1176C17.8114 15.9791 16.9565 15.8774 16 15.8774C13 15.8774 10 17.8774 6 17.8774C3.55129 17.8774 2.22687 17.5027 1.56788 17.212C1.48012 17.1733 1.43624 17.1539 1.3096 17.0331C1.23369 16.9606 1.09512 16.748 1.05947 16.6494C1 16.4847 1 16.3947 1 16.2147L1 5.4663C1 4.55753 1 4.10314 1.13628 3.86958C1.2749 3.63201 1.40859 3.52156 1.66806 3.43025C1.92314 3.34049 2.43803 3.43942 3.46783 3.63729C4.18862 3.77578 5.04348 3.87744 6 3.87744C9 3.87744 12 1.87744 16 1.87744ZM13.5 9.87744C13.5 11.2582 12.3807 12.3774 11 12.3774C9.61929 12.3774 8.5 11.2582 8.5 9.87744C8.5 8.49673 9.61929 7.37744 11 7.37744C12.3807 7.37744 13.5 8.49673 13.5 9.87744Z" stroke="white" stroke-width="2" stroke-linecap="round" stroke-linejoin="round"/>
</svg>
