<svg width="24" height="25" viewBox="0 0 24 25" fill="none" xmlns="http://www.w3.org/2000/svg">
<g clip-path="url(#clip0_388_5828)">
<path d="M12 24.5C18.6274 24.5 24 19.1274 24 12.5C24 5.87258 18.6274 0.5 12 0.5C5.37258 0.5 0 5.87258 0 12.5C0 19.1274 5.37258 24.5 12 24.5Z" fill="#F0F0F0"/>
<path d="M6.78296 16.674L7.82644 23.7538C9.12638 24.2362 10.5325 24.5001 12.0003 24.5001C17.1599 24.5001 21.5584 21.2436 23.2539 16.674H6.78296Z" fill="black"/>
<path d="M6.78296 8.32626L7.82644 1.24645C9.12638 0.764059 10.5325 0.500153 12.0003 0.500153C17.1599 0.500153 21.5584 3.75665 23.2539 8.32626H6.78296Z" fill="#6DA544"/>
<path d="M0.000244141 12.4999C0.000244141 17.6595 3.25679 22.058 7.82635 23.7535V1.24631C3.25679 2.94182 0.000244141 7.34034 0.000244141 12.4999Z" fill="#A2001D"/>
</g>
<defs>
<clipPath id="clip0_388_5828">
<rect width="24" height="24" fill="white" transform="translate(0 0.5)"/>
</clipPath>
</defs>
</svg>
