<svg width="18" height="18" viewBox="0 0 18 18" fill="none" xmlns="http://www.w3.org/2000/svg">
<g clip-path="url(#clip0_40_6636)">
<path d="M9 18C13.9706 18 18 13.9706 18 9C18 4.02944 13.9706 0 9 0C4.02944 0 0 4.02944 0 9C0 13.9706 4.02944 18 9 18Z" fill="#F0F0F0"/>
<path d="M18 8.99997C18 4.02944 13.9705 -3.05176e-05 8.99999 -3.05176e-05C7.23936 -3.05176e-05 5.59707 0.506044 4.20988 1.37989L6.1826 2.21805L3.52173 3.3486L6.1826 4.47912L3.52173 5.60961L6.1826 6.74006L3.52173 7.87036L6.1826 9.0006L3.52173 10.1311L6.1826 11.2615L3.52173 12.3918L6.1826 13.5222L3.52173 14.6527L6.1826 15.783L4.21076 16.6207C5.59778 17.4941 7.23971 18 8.99999 18C13.9705 18 18 13.9705 18 8.99997Z" fill="#751A46"/>
</g>
<defs>
<clipPath id="clip0_40_6636">
<rect width="18" height="18" fill="white"/>
</clipPath>
</defs>
</svg>
