<svg width="18" height="18" viewBox="0 0 18 18" fill="none" xmlns="http://www.w3.org/2000/svg">
<path d="M8.53834 0.770121C8.70914 0.359474 9.29086 0.359474 9.46166 0.77012L11.5278 5.7376C11.5998 5.91072 11.7626 6.029 11.9495 6.04399L17.3123 6.47392C17.7556 6.50946 17.9354 7.06271 17.5976 7.35205L13.5117 10.8521C13.3693 10.974 13.3071 11.1654 13.3506 11.3478L14.5989 16.581C14.7021 17.0136 14.2315 17.3555 13.8519 17.1237L9.26063 14.3193C9.10062 14.2216 8.89938 14.2216 8.73937 14.3193L4.14806 17.1237C3.76851 17.3555 3.29788 17.0136 3.40108 16.581L4.64939 11.3478C4.69289 11.1654 4.6307 10.974 4.48831 10.8521L0.402413 7.35205C0.0646446 7.06271 0.244408 6.50946 0.687735 6.47392L6.05054 6.04399C6.23744 6.029 6.40024 5.91072 6.47225 5.7376L8.53834 0.770121Z" fill="#FDB022"/>
</svg>
