<svg width="17" height="17" viewBox="0 0 17 17" fill="none" xmlns="http://www.w3.org/2000/svg">
<g clip-path="url(#clip0_9_27602)">
<path d="M12.6888 2.99422C12.8408 3.36173 13.1324 3.65386 13.4997 3.80637L14.7876 4.33983C15.1552 4.49207 15.4472 4.78408 15.5994 5.15163C15.7517 5.51917 15.7517 5.93213 15.5994 6.29968L15.0663 7.58664C14.914 7.95434 14.9138 8.36773 15.0668 8.73526L15.599 10.0218C15.6744 10.2039 15.7133 10.399 15.7133 10.5961C15.7134 10.7931 15.6746 10.9883 15.5992 11.1703C15.5237 11.3524 15.4132 11.5178 15.2738 11.6571C15.1345 11.7965 14.969 11.907 14.7869 11.9823L13.4999 12.5154C13.1324 12.6673 12.8403 12.959 12.6878 13.3263L12.1543 14.6142C12.0021 14.9818 11.7101 15.2738 11.3425 15.426C10.975 15.5782 10.562 15.5782 10.1945 15.426L8.90753 14.8929C8.53997 14.7411 8.12716 14.7414 7.75983 14.8938L6.47195 15.4265C6.10461 15.5784 5.692 15.5782 5.32476 15.4261C4.95751 15.274 4.66567 14.9823 4.51332 14.6152L3.9797 13.3269C3.82774 12.9594 3.53605 12.6673 3.16877 12.5148L1.88088 11.9813C1.5135 11.8291 1.22158 11.5373 1.06928 11.17C0.916981 10.8026 0.916774 10.3899 1.0687 10.0224L1.60178 8.73543C1.75365 8.36787 1.75334 7.95505 1.60092 7.58773L1.06861 6.29892C0.993135 6.11688 0.954274 5.92175 0.954242 5.72469C0.95421 5.52763 0.99301 5.33249 1.06842 5.15043C1.14384 4.96836 1.25438 4.80294 1.39375 4.66362C1.53312 4.5243 1.69857 4.4138 1.88066 4.33845L3.16763 3.80537C3.53482 3.65354 3.82677 3.36222 3.97939 2.99536L4.51285 1.70747C4.6651 1.33993 4.95711 1.04792 5.32465 0.89568C5.69219 0.743439 6.10516 0.743439 6.4727 0.89568L7.75966 1.42876C8.12722 1.58062 8.54003 1.58031 8.90736 1.4279L10.1958 0.896506C10.5633 0.744351 10.9762 0.744382 11.3436 0.896593C11.7111 1.0488 12.0031 1.34073 12.1553 1.70818L12.689 2.99645L12.6888 2.99422Z" fill="#2E90FA"/>
<path fill-rule="evenodd" clip-rule="evenodd" d="M11.4666 6.06356C11.5735 5.89568 11.6093 5.69221 11.5662 5.49792C11.5231 5.30364 11.4045 5.13444 11.2366 5.02756C11.0688 4.92068 10.8653 4.88486 10.671 4.92799C10.4767 4.97113 10.3075 5.08968 10.2006 5.25756L7.26364 9.87256L5.91964 8.19256C5.79538 8.03714 5.61448 7.93745 5.41672 7.91541C5.21896 7.89338 5.02055 7.9508 4.86514 8.07506C4.70972 8.19931 4.61003 8.38022 4.58799 8.57797C4.56596 8.77573 4.62338 8.97414 4.74764 9.12956L6.74764 11.6296C6.82217 11.7228 6.9179 11.797 7.02687 11.8458C7.13584 11.8946 7.25489 11.9168 7.37412 11.9103C7.49336 11.9038 7.60932 11.869 7.71238 11.8087C7.81544 11.7484 7.90261 11.6643 7.96664 11.5636L11.4666 6.06356Z" fill="white"/>
</g>
<defs>
<clipPath id="clip0_9_27602">
<rect width="16" height="16" fill="white" transform="translate(0.333374 0.160156)"/>
</clipPath>
</defs>
</svg>
