<svg width="18" height="18" viewBox="0 0 18 18" fill="none" xmlns="http://www.w3.org/2000/svg">
<g clip-path="url(#clip0_40_6625)">
<path d="M9 18C13.9706 18 18 13.9706 18 9C18 4.02944 13.9706 0 9 0C4.02944 0 0 4.02944 0 9C0 13.9706 4.02944 18 9 18Z" fill="#F0F0F0"/>
<path d="M5.08716 12.1305L5.86977 17.4404C6.84472 17.8021 7.89931 18.0001 9.00019 18.0001C12.8698 18.0001 16.1688 15.5577 17.4404 12.1305H5.08716Z" fill="black"/>
<path d="M5.08716 5.8697L5.86977 0.559845C6.84472 0.198052 7.89931 0.00012207 9.00019 0.00012207C12.8698 0.00012207 16.1688 2.4425 17.4404 5.8697H5.08716Z" fill="#6DA544"/>
<path d="M0.00012207 8.99993C0.00012207 12.8696 2.44253 16.1685 5.8697 17.4401V0.559723C2.44253 1.83136 0.00012207 5.13025 0.00012207 8.99993Z" fill="#A2001D"/>
</g>
<defs>
<clipPath id="clip0_40_6625">
<rect width="18" height="18" fill="white"/>
</clipPath>
</defs>
</svg>
