<svg width="24" height="25" viewBox="0 0 24 25" fill="none" xmlns="http://www.w3.org/2000/svg">
<path d="M12 2.30547C15.2063 2.30547 15.5859 2.31953 16.8469 2.37578C18.0188 2.42734 18.6516 2.62422 19.0734 2.78828C19.6313 3.00391 20.0344 3.26641 20.4516 3.68359C20.8734 4.10547 21.1313 4.50391 21.3469 5.06172C21.5109 5.48359 21.7078 6.12109 21.7594 7.28828C21.8156 8.55391 21.8297 8.93359 21.8297 12.1352C21.8297 15.3414 21.8156 15.7211 21.7594 16.982C21.7078 18.1539 21.5109 18.7867 21.3469 19.2086C21.1313 19.7664 20.8687 20.1695 20.4516 20.5867C20.0297 21.0086 19.6313 21.2664 19.0734 21.482C18.6516 21.6461 18.0141 21.843 16.8469 21.8945C15.5813 21.9508 15.2016 21.9648 12 21.9648C8.79375 21.9648 8.41406 21.9508 7.15313 21.8945C5.98125 21.843 5.34844 21.6461 4.92656 21.482C4.36875 21.2664 3.96563 21.0039 3.54844 20.5867C3.12656 20.1648 2.86875 19.7664 2.65313 19.2086C2.48906 18.7867 2.29219 18.1492 2.24063 16.982C2.18438 15.7164 2.17031 15.3367 2.17031 12.1352C2.17031 8.92891 2.18438 8.54922 2.24063 7.28828C2.29219 6.11641 2.48906 5.48359 2.65313 5.06172C2.86875 4.50391 3.13125 4.10078 3.54844 3.68359C3.97031 3.26172 4.36875 3.00391 4.92656 2.78828C5.34844 2.62422 5.98594 2.42734 7.15313 2.37578C8.41406 2.31953 8.79375 2.30547 12 2.30547ZM12 0.144531C8.74219 0.144531 8.33438 0.158594 7.05469 0.214844C5.77969 0.271094 4.90313 0.477344 4.14375 0.772656C3.35156 1.08203 2.68125 1.48984 2.01563 2.16016C1.34531 2.82578 0.9375 3.49609 0.628125 4.28359C0.332812 5.04766 0.126563 5.91953 0.0703125 7.19453C0.0140625 8.47891 0 8.88672 0 12.1445C0 15.4023 0.0140625 15.8102 0.0703125 17.0898C0.126563 18.3648 0.332812 19.2414 0.628125 20.0008C0.9375 20.793 1.34531 21.4633 2.01563 22.1289C2.68125 22.7945 3.35156 23.207 4.13906 23.5117C4.90313 23.807 5.775 24.0133 7.05 24.0695C8.32969 24.1258 8.7375 24.1398 11.9953 24.1398C15.2531 24.1398 15.6609 24.1258 16.9406 24.0695C18.2156 24.0133 19.0922 23.807 19.8516 23.5117C20.6391 23.207 21.3094 22.7945 21.975 22.1289C22.6406 21.4633 23.0531 20.793 23.3578 20.0055C23.6531 19.2414 23.8594 18.3695 23.9156 17.0945C23.9719 15.8148 23.9859 15.407 23.9859 12.1492C23.9859 8.89141 23.9719 8.48359 23.9156 7.20391C23.8594 5.92891 23.6531 5.05234 23.3578 4.29297C23.0625 3.49609 22.6547 2.82578 21.9844 2.16016C21.3188 1.49453 20.6484 1.08203 19.8609 0.777344C19.0969 0.482031 18.225 0.275781 16.95 0.219531C15.6656 0.158594 15.2578 0.144531 12 0.144531Z" fill="#A4A7AE"/>
<path d="M12 5.98047C8.59688 5.98047 5.83594 8.74141 5.83594 12.1445C5.83594 15.5477 8.59688 18.3086 12 18.3086C15.4031 18.3086 18.1641 15.5477 18.1641 12.1445C18.1641 8.74141 15.4031 5.98047 12 5.98047ZM12 16.143C9.79219 16.143 8.00156 14.3523 8.00156 12.1445C8.00156 9.93672 9.79219 8.14609 12 8.14609C14.2078 8.14609 15.9984 9.93672 15.9984 12.1445C15.9984 14.3523 14.2078 16.143 12 16.143Z" fill="#A4A7AE"/>
<path d="M19.8469 5.73667C19.8469 6.53355 19.2 7.17574 18.4078 7.17574C17.6109 7.17574 16.9688 6.52886 16.9688 5.73667C16.9688 4.9398 17.6156 4.29761 18.4078 4.29761C19.2 4.29761 19.8469 4.94448 19.8469 5.73667Z" fill="#A4A7AE"/>
</svg>
