<svg width="24" height="25" viewBox="0 0 24 25" fill="none" xmlns="http://www.w3.org/2000/svg">
<path d="M22.2234 0.144531H1.77187C0.792187 0.144531 0 0.917969 0 1.87422V22.4102C0 23.3664 0.792187 24.1445 1.77187 24.1445H22.2234C23.2031 24.1445 24 23.3664 24 22.4148V1.87422C24 0.917969 23.2031 0.144531 22.2234 0.144531ZM7.12031 20.5961H3.55781V9.13984H7.12031V20.5961ZM5.33906 7.57891C4.19531 7.57891 3.27188 6.65547 3.27188 5.51641C3.27188 4.37734 4.19531 3.45391 5.33906 3.45391C6.47813 3.45391 7.40156 4.37734 7.40156 5.51641C7.40156 6.65078 6.47813 7.57891 5.33906 7.57891ZM20.4516 20.5961H16.8937V15.0273C16.8937 13.7008 16.8703 11.9898 15.0422 11.9898C13.1906 11.9898 12.9094 13.4383 12.9094 14.9336V20.5961H9.35625V9.13984H12.7687V10.7055H12.8156C13.2891 9.80547 14.4516 8.85391 16.1813 8.85391C19.7859 8.85391 20.4516 11.2258 20.4516 14.3102V20.5961Z" fill="#A4A7AE"/>
</svg>
