<svg width="24" height="25" viewBox="0 0 24 25" fill="none" xmlns="http://www.w3.org/2000/svg">
<path fill-rule="evenodd" clip-rule="evenodd" d="M24 12.1445C24 18.7719 18.6274 24.1445 12 24.1445C9.92479 24.1445 7.97261 23.6178 6.26988 22.6906L0 24.1445L1.55869 18.0631C0.566569 16.3166 0 14.2967 0 12.1445C0 5.51711 5.37258 0.144531 12 0.144531C18.6274 0.144531 24 5.51711 24 12.1445ZM12.0001 22.4303C17.6807 22.4303 22.2858 17.8252 22.2858 12.1445C22.2858 6.4639 17.6807 1.85883 12.0001 1.85883C6.31943 1.85883 1.71436 6.4639 1.71436 12.1445C1.71436 14.3379 2.40086 16.3708 3.57072 18.0403L2.64942 21.4952L6.1652 20.6162C7.82312 21.7603 9.83335 22.4303 12.0001 22.4303ZM7.93483 6.05011C8.34224 6.04658 8.73629 6.04317 9.00009 6.57301C9.22834 7.03147 9.50902 7.81855 9.84032 8.75879L9.84462 8.77099C9.92198 8.99029 10.0428 9.33268 9.88402 9.55962C9.7223 9.79082 9.3617 10.2561 9.10054 10.5574C9.03364 10.6346 8.89958 10.8112 9.08227 11.0991C9.12769 11.1707 9.16689 11.244 9.21008 11.3248C9.38407 11.6502 9.62285 12.0969 10.5939 13.0382C11.574 13.9883 12.8036 14.5352 13.2571 14.7172C13.3803 14.7871 13.6764 14.8807 13.8751 14.6958C13.9664 14.6108 14.1385 14.391 14.3262 14.1512C14.5465 13.8697 14.7885 13.5607 14.9465 13.4101C14.9513 13.4058 14.9562 13.4013 14.9612 13.3966C15.0669 13.2997 15.2345 13.1461 15.5425 13.2695C15.8122 13.3774 16.847 13.8754 17.6286 14.2516C17.7823 14.3255 17.9262 14.3948 18.0526 14.4554C18.1769 14.4948 18.3572 14.6398 18.3572 14.9305C18.3572 15.5863 17.8929 17.5283 15.6362 17.5685C13.3795 17.6087 10.6612 16.4284 8.59243 14.1469C6.44874 11.7828 5.81257 10.2025 5.81257 8.75879C5.81257 6.99721 7.04472 6.05068 7.83493 6.05068C7.86828 6.05068 7.9016 6.05039 7.93483 6.05011Z" fill="#A4A7AE"/>
</svg>
